<svg width="139" height="257" viewBox="0 0 139 257" fill="none" xmlns="http://www.w3.org/2000/svg">
<path d="M95.0397 255.843C95.2291 256.649 96.0364 257.15 96.8428 256.96L109.985 253.875C110.792 253.685 111.292 252.878 111.103 252.071C110.914 251.265 110.106 250.765 109.3 250.954L97.6174 253.697L94.8746 242.015C94.6853 241.208 93.878 240.708 93.0715 240.897C92.265 241.086 91.7647 241.894 91.954 242.7L95.0397 255.843ZM0.7371 3.47678C1.52263 3.61662 2.31358 3.76254 3.10964 3.9146L3.67249 0.967875C2.86416 0.813474 2.06085 0.665272 1.2629 0.523218L0.7371 3.47678ZM7.94395 4.90079C9.50977 5.24036 11.092 5.60293 12.6884 5.98886L13.3933 3.07287C11.774 2.68139 10.1688 2.31354 8.57978 1.96894L7.94395 4.90079ZM17.4449 7.19769C19.0125 7.61547 20.5912 8.0554 22.1789 8.51777L23.0177 5.63743C21.4079 5.16862 19.8072 4.72254 18.2175 4.29887L17.4449 7.19769ZM26.8544 9.93693C28.4063 10.4272 29.9648 10.9388 31.528 11.472L32.4965 8.63266C30.9116 8.09205 29.3315 7.57336 27.7581 7.07628L26.8544 9.93693ZM36.1387 13.1033C37.6651 13.6629 39.1941 14.2432 40.7241 14.8444L41.8213 12.0522C40.2696 11.4425 38.7191 10.8541 37.1714 10.2867L36.1387 13.1033ZM45.2692 16.6916C46.767 17.3208 48.2642 17.9703 49.759 18.6403L50.986 15.9027C49.4693 15.2229 47.9505 14.564 46.4311 13.9257L45.2692 16.6916ZM54.2176 20.7037C55.6831 21.4037 57.145 22.1239 58.6015 22.8644L59.9611 20.1902C58.4822 19.4383 56.9981 18.7072 55.5106 17.9966L54.2176 20.7037ZM62.9451 25.1424C64.3765 25.9166 65.8012 26.711 67.2177 27.5258L68.7135 24.9253C67.2739 24.0972 65.8263 23.2901 64.3724 22.5037L62.9451 25.1424ZM71.43 30.0246C72.8197 30.8747 74.1998 31.7451 75.569 32.6361L77.2053 30.1216C75.8123 29.2151 74.4085 28.3298 72.9955 27.4655L71.43 30.0246ZM79.6309 35.3629C80.9705 36.2907 82.2978 37.2391 83.6115 38.2082L85.3925 35.794C84.0543 34.8069 82.7027 33.8411 81.339 32.8967L79.6309 35.3629ZM87.4995 41.1698C88.78 42.1771 90.0456 43.2052 91.2947 44.2543L93.2241 41.9571C91.95 40.8869 90.6595 39.8386 89.3543 38.8119L87.4995 41.1698ZM94.9815 47.456C96.1925 48.5437 97.3859 49.6525 98.5603 50.7825L100.64 48.6209C99.4409 47.4665 98.2223 46.3343 96.9861 45.224L94.9815 47.456ZM102.016 54.2278C103.147 55.3961 104.257 56.5857 105.346 57.7969L107.577 55.7912C106.463 54.5522 105.328 53.3357 104.172 52.1414L102.016 54.2278ZM108.537 61.4848C109.576 62.7322 110.592 64.0011 111.584 65.2918L113.963 63.4637C112.947 62.1416 111.906 60.8422 110.843 59.5652L108.537 61.4848ZM114.477 69.2166C115.412 70.5394 116.322 71.8839 117.206 73.2501L119.725 71.6209C118.818 70.2197 117.886 68.8413 116.927 67.4854L114.477 69.2166ZM119.768 77.4002C120.588 78.7924 121.381 80.2059 122.146 81.6412L124.793 80.2302C124.008 78.757 123.194 77.3064 122.353 75.8781L119.768 77.4002ZM124.349 85.9984C125.044 87.4511 125.711 88.925 126.349 90.4202L129.109 89.2431C128.454 87.7078 127.769 86.1945 127.055 84.7031L124.349 85.9984ZM128.169 94.9592C128.734 96.4619 129.27 97.9852 129.775 99.5294L132.626 98.5964C132.107 97.0109 131.557 95.4468 130.978 93.9038L128.169 94.9592ZM131.197 104.218C131.628 105.759 132.03 107.32 132.401 108.902L135.322 108.216C134.941 106.594 134.529 104.992 134.086 103.41L131.197 104.218ZM133.42 113.702C133.719 115.271 133.988 116.859 134.227 118.466L137.194 118.026C136.95 116.378 136.674 114.75 136.367 113.141L133.42 113.702ZM134.849 123.336C135.019 124.924 135.16 126.53 135.271 128.154L138.264 127.95C138.151 126.287 138.006 124.643 137.832 123.016L134.849 123.336ZM135.511 133.052C135.56 134.653 135.579 136.272 135.569 137.908L138.569 137.926C138.579 136.254 138.559 134.6 138.51 132.962L135.511 133.052ZM135.452 142.792C135.385 144.405 135.29 146.034 135.166 147.68L138.157 147.906C138.284 146.227 138.381 144.563 138.45 142.916L135.452 142.792ZM134.722 152.513C134.546 154.14 134.343 155.782 134.111 157.44L137.082 157.856C137.318 156.167 137.526 154.494 137.705 152.835L134.722 152.513ZM133.374 162.192C133.102 163.789 132.805 165.401 132.48 167.027L135.422 167.614C135.752 165.96 136.055 164.321 136.331 162.695L133.374 162.192ZM131.456 171.819C131.101 173.379 130.721 174.952 130.317 176.538L133.223 177.279C133.634 175.669 134.02 174.071 134.381 172.485L131.456 171.819ZM129.029 181.334C128.595 182.871 128.139 184.421 127.659 185.982L130.527 186.863C131.014 185.28 131.476 183.708 131.916 182.147L129.029 181.334ZM126.172 190.635C125.654 192.198 125.112 193.772 124.547 195.357L127.373 196.364C127.945 194.758 128.494 193.164 129.02 191.58L126.172 190.635ZM122.884 199.879C122.312 201.389 121.719 202.909 121.104 204.439L123.888 205.557C124.51 204.009 125.11 202.471 125.69 200.942L122.884 199.879ZM119.196 209.061C118.575 210.527 117.934 212.003 117.274 213.487L120.015 214.706C120.682 213.206 121.33 211.714 121.958 210.232L119.196 209.061ZM115.25 217.935C114.556 219.426 113.843 220.927 113.11 222.437L115.809 223.747C116.549 222.223 117.269 220.707 117.97 219.2L115.25 217.935ZM110.944 226.81C110.221 228.243 109.481 229.683 108.722 231.131L111.38 232.523C112.145 231.061 112.893 229.608 113.622 228.162L110.944 226.81ZM106.394 235.501C105.609 236.949 104.807 238.404 103.987 239.868L106.604 241.335C107.431 239.859 108.24 238.391 109.031 236.931L106.394 235.501ZM101.605 244.054C100.795 245.457 99.969 246.866 99.1266 248.284L101.705 249.817C102.554 248.389 103.387 246.968 104.203 245.554L101.605 244.054ZM96.5502 252.557C96.1126 253.273 95.6709 253.99 95.225 254.71L97.775 256.29C98.2241 255.566 98.669 254.843 99.1098 254.122L96.5502 252.557Z" fill="black"/>
</svg>
